<svg width="305" height="65" viewBox="0 0 305 65" fill="none" xmlns="http://www.w3.org/2000/svg">
<path d="M72.7292 57.5823V10.6449C72.7292 9.34053 73.7871 8.28265 75.0914 8.28265C82.5026 8.28265 88.5073 14.2873 88.5073 21.6985V49.1913C88.5073 50.4957 89.5652 51.5535 90.8695 51.5535H112.76C114.065 51.5535 115.123 52.6114 115.123 53.9157V54.2403C115.123 59.668 110.723 64.0618 105.301 64.0618H79.2088C75.6324 64.0618 72.7292 61.1586 72.7292 57.5823Z" fill="#5328FE"/>
<path d="M125.786 16.0906C123.021 16.0906 120.791 15.3212 119.09 13.7825C117.389 12.2438 116.541 10.3324 116.541 8.0483C116.541 5.76424 117.389 3.85285 119.09 2.3081C120.791 0.769367 123.021 0 125.786 0C128.55 0 130.78 0.733303 132.481 2.1939C134.182 3.65449 135.03 5.52983 135.03 7.81389C135.03 10.0979 134.195 12.1837 132.518 13.7524C130.847 15.3212 128.599 16.1026 125.786 16.1026V16.0906ZM118.218 55.0518V23.087C118.218 21.8669 119.21 20.8751 120.43 20.8751C127.571 20.8751 133.359 26.6634 133.359 33.8041V61.8559C133.359 63.0761 132.367 64.0679 131.147 64.0679H127.228C122.251 64.0679 118.212 60.0347 118.212 55.0518H118.218Z" fill="#5328FE"/>
<path d="M156.452 64.7831C152.785 64.7831 149.215 64.3564 145.735 63.5089C142.645 62.7575 140.091 61.8319 138.071 60.7439C137.651 60.5155 137.464 60.0106 137.663 59.5719L141.467 50.8924C141.678 50.4056 142.261 50.2012 142.724 50.4537C144.545 51.4514 146.631 52.2569 148.969 52.876C151.68 53.5912 154.336 53.9519 156.939 53.9519C159.542 53.9519 161.255 53.6874 162.24 53.1525C163.22 52.6235 163.713 51.9022 163.713 51.0006C163.713 50.1531 163.25 49.528 162.318 49.1253C161.387 48.7286 160.167 48.422 158.652 48.2117C157.137 48.0013 155.478 47.7609 153.669 47.4964C151.86 47.2319 150.045 46.8713 148.211 46.4205C146.378 45.9697 144.707 45.2785 143.192 44.3468C141.678 43.4151 140.47 42.1529 139.568 40.5601C138.666 38.9672 138.216 36.9477 138.216 34.5013C138.216 31.7424 139.027 29.284 140.644 27.1322C142.267 24.9804 144.641 23.2794 147.779 22.0291C150.91 20.7789 154.739 20.1538 159.253 20.1538C162.282 20.1538 165.348 20.4604 168.455 21.0674C171.196 21.6084 173.558 22.3838 175.536 23.3996C175.969 23.622 176.167 24.1389 175.969 24.5897L172.17 33.191C171.954 33.6778 171.371 33.8702 170.896 33.6177C169.062 32.656 167.223 31.9768 165.39 31.5861C163.262 31.1353 161.249 30.9069 159.331 30.9069C156.783 30.9069 154.985 31.2014 153.952 31.7845C152.918 32.3675 152.395 33.0888 152.395 33.9363C152.395 34.7838 152.846 35.439 153.747 35.8898C154.649 36.3406 155.857 36.6892 157.372 36.9236C158.886 37.164 160.545 37.4045 162.355 37.6389C164.158 37.8793 165.979 38.2339 167.812 38.7148C169.645 39.1896 171.316 39.8989 172.831 40.8245C174.346 41.7562 175.554 43.0064 176.456 44.5692C177.357 46.138 177.808 48.1455 177.808 50.5859C177.808 53.2426 176.997 55.6349 175.38 57.7566C173.757 59.8844 171.371 61.5794 168.209 62.8597C165.047 64.134 161.128 64.7711 156.452 64.7711V64.7831Z" fill="#5328FE"/>
<path d="M177.393 32.8724V23.3816C177.393 22.8767 177.802 22.4679 178.307 22.4679H207.801C208.306 22.4679 208.715 22.8767 208.715 23.3816V24.5356C208.715 29.6447 204.573 33.7861 199.464 33.7861H178.307C177.802 33.7861 177.393 33.3773 177.393 32.8724ZM201.22 64.7831C195.696 64.7831 191.392 63.4187 188.309 60.6778C185.225 57.943 183.686 53.8136 183.686 48.2838V12.1416C183.686 11.6367 184.095 11.228 184.6 11.228H187.972C193.965 11.228 198.827 16.0906 198.827 22.0833V48.1215C198.827 49.6603 199.254 50.8684 200.102 51.746C200.949 52.6235 202.043 53.0623 203.371 53.0623C203.389 53.0623 203.407 53.0623 203.425 53.0623C206.407 53.0503 209.094 54.8234 210.085 57.6304L211.738 62.3007C210.464 63.1542 208.895 63.7733 207.038 64.1761C205.181 64.5728 203.239 64.7711 201.22 64.7711V64.7831Z" fill="#5328FE"/>
<path d="M234.705 64.7831C229.602 64.7831 225.154 63.8154 221.355 61.874C217.557 59.9325 214.605 57.2818 212.508 53.9038C210.41 50.5318 209.358 46.691 209.358 42.3873C209.358 38.0837 210.38 34.2489 212.423 30.8709C214.467 27.4989 217.298 24.8662 220.911 22.9789C224.523 21.0915 228.586 20.1478 233.1 20.1478C237.35 20.1478 241.227 21.0134 244.737 22.7384C248.241 24.4635 251.03 27 253.104 30.348C255.177 33.6959 256.211 37.7591 256.211 42.5376C256.211 43.0666 256.187 43.6796 256.133 44.3709C256.049 45.4528 255.147 46.2823 254.065 46.2823H222.702C222.197 46.2823 221.788 45.8735 221.788 45.3686V39.2197C221.788 38.7148 222.197 38.3061 222.702 38.3061H243.072C244.082 38.3061 244.34 39.7006 243.403 40.0672C242.826 40.2896 242.212 39.8809 242.164 39.2678C242.062 37.8312 241.714 36.557 241.112 35.439C240.343 34.0024 239.279 32.8905 237.927 32.0911C236.574 31.2916 234.994 30.8949 233.184 30.8949C231.375 30.8949 229.8 31.2916 228.442 32.0911C227.09 32.8905 226.038 34.0145 225.292 35.4751C224.547 36.9357 224.174 38.6487 224.174 40.6142V42.9223C224.174 45.0501 224.613 46.8773 225.491 48.4221C226.368 49.9608 227.631 51.1449 229.277 51.9684C230.924 52.7918 232.89 53.2006 235.174 53.2006C237.296 53.2006 239.117 52.894 240.632 52.2869L240.68 52.2689C243.793 51.0067 247.358 51.764 249.684 54.1863L252.503 57.1195C252.839 57.4681 252.851 58.0331 252.503 58.3818C250.543 60.3593 248.193 61.886 245.452 62.9679C242.423 64.164 238.84 64.7591 234.693 64.7591L234.705 64.7831Z" fill="#5328FE"/>
<path d="M287.154 20.1538C290.502 20.1538 293.532 20.833 296.236 22.1854C298.947 23.5378 301.081 25.6235 302.65 28.4425C304.219 31.2615 305 34.898 305 39.3579V62.7876C305 63.4908 304.429 64.0558 303.732 64.0558H302.187C295.377 64.0558 289.859 58.538 289.859 51.7279V41.8223C289.859 38.7448 289.234 36.4969 287.984 35.0904C286.734 33.6839 284.996 32.9806 282.766 32.9806C281.174 32.9806 279.713 33.3412 278.385 34.0565C277.056 34.7718 276.023 35.8777 275.277 37.3624C274.532 38.853 274.159 40.7885 274.159 43.1807V62.7876C274.159 63.4908 273.588 64.0558 272.891 64.0558H260.293C259.589 64.0558 259.024 63.4848 259.024 62.7876V22.1433C259.024 21.4401 259.595 20.8751 260.293 20.8751H272.176C272.879 20.8751 273.444 21.4461 273.444 22.1433V29.4403C273.444 30.6485 271.911 31.1774 271.172 30.2217C270.859 29.819 270.805 29.266 271.064 28.8272C272.669 26.0563 274.79 23.9526 277.429 22.51C280.296 20.9412 283.536 20.1598 287.148 20.1598L287.154 20.1538Z" fill="#5328FE"/>
<path fill-rule="evenodd" clip-rule="evenodd" d="M29.7476 7.89502C24.3573 7.897 19.0886 9.49721 14.6076 12.4933C10.1267 15.4895 6.63478 19.747 4.57336 24.7275C3.41597 27.5239 2.7387 30.4777 2.5536 33.4663C5.87904 33.2504 9.8548 33.0596 13.0595 33.99C13.1273 33.4096 13.183 32.7467 13.2425 32.0384C13.4856 29.1465 13.7922 25.499 15.2376 23.6308C17.6537 20.497 18.1491 25.8825 18.3613 28.1888C18.3819 28.4128 18.3999 28.6078 18.4166 28.7631C18.5806 30.249 18.7791 31.7828 18.9808 33.3414L18.9808 33.3415C19.4774 37.1789 19.9935 41.1669 20.0629 44.9617C20.0909 44.8105 20.1201 44.6595 20.1506 44.5088C20.2657 43.2572 20.3704 42.0056 20.4751 40.755L20.4751 40.7549C20.6604 38.5401 20.8454 36.3283 21.0874 34.1246C21.1083 33.9304 21.1275 33.6401 21.1511 33.2842C21.3187 30.7536 21.7062 24.903 24.4757 26.6504C25.6889 27.4165 25.8985 30.6052 26.0311 32.6229L26.0311 32.623C26.0641 33.1246 26.0923 33.5539 26.13 33.8555C26.3174 35.2765 26.5354 36.6791 26.7791 38.0826C26.8161 37.8366 26.8598 37.5885 26.9031 37.3421C26.9601 37.018 27.0166 36.6967 27.0568 36.3868C27.3248 34.3214 27.5052 32.2436 27.6856 30.1655L27.6856 30.1654C27.8273 28.5335 27.9689 26.9014 28.1531 25.2751C28.1941 24.8923 28.2179 24.4214 28.2439 23.9066C28.3318 22.1698 28.445 19.9325 29.329 18.8871C31.6097 16.1374 32.0997 21.4243 32.2793 23.3612C32.2943 23.5232 32.3072 23.6618 32.3187 23.7703C32.5395 25.9218 32.6928 28.0797 32.8461 30.2385L32.8461 30.2386L32.8461 30.2388C32.9627 31.8798 33.0792 33.5213 33.2256 35.161C33.3314 37.0225 33.5477 38.8761 33.8733 40.7119C34.3517 42.7748 34.6407 43.3927 35.3483 40.7817C35.6825 39.5519 35.8045 38.4021 35.9122 37.3869C36.2037 34.6387 36.3906 32.8769 40.4005 33.1866V32.9786H41.9153L43.5397 32.3907H49.0806V33.5268H51.4026L51.4225 34.7725H49.1005V35.769H43.5596L41.9153 35.2209H40.4404V34.6828H38.8707C37.1638 35.0371 37.1129 36.4492 37.0477 38.2572C37.0152 39.1573 36.9792 40.1556 36.7335 41.1703L36.727 41.1971C36.4258 42.4322 35.8234 44.903 34.0129 44.2896C31.4784 43.4204 31.4138 35.5919 31.3793 31.4209C31.3715 30.475 31.3653 29.7172 31.3321 29.2713C31.3218 29.0149 31.3195 28.5926 31.3166 28.0648V28.0646C31.3025 25.5152 31.2747 20.506 30.2757 19.8538C30.4269 19.9524 30.0318 22.5357 29.7081 24.6518L29.708 24.6519L29.708 24.6521C29.541 25.7438 29.393 26.7111 29.3489 27.1486C29.3099 27.5391 29.295 28.3111 29.2759 29.2989V29.299C29.2026 33.1009 29.0676 40.0999 27.2562 40.8514C25.0474 41.7284 24.5392 35.0622 24.2973 31.8896L24.2973 31.8895C24.2423 31.1686 24.2011 30.6281 24.1568 30.3974C23.2671 25.799 22.7901 30.8409 22.5537 33.3395C22.5227 33.6675 22.4958 33.9517 22.4726 34.1645C22.2266 36.3926 22.0401 38.6307 21.8536 40.8682L21.8536 40.8683L21.8536 40.8691C21.7757 41.8036 21.6978 42.7381 21.6156 43.6717C21.603 43.8019 21.5955 44.0591 21.5855 44.4026V44.4026C21.5243 46.5045 21.3691 51.8371 19.3733 51.0662C17.8427 50.48 17.8153 43.7549 17.8022 40.5463C17.7993 39.8273 17.7971 39.2849 17.7788 39.0277C17.739 38.4829 17.6999 37.9378 17.6609 37.3926C17.4555 34.5271 17.2499 31.658 16.9317 28.8029C16.8435 28.0337 16.7273 27.2684 16.6109 26.5021L16.6109 26.5021C16.5433 26.0572 16.4757 25.612 16.4135 25.1655C16.3999 25.0681 16.3875 24.9788 16.3762 24.897C16.3034 24.3731 16.274 24.1615 16.2535 24.1623C16.2395 24.1629 16.2297 24.2611 16.2131 24.426C16.1881 24.6754 16.1477 25.0774 16.0548 25.5242C15.4453 28.5045 14.9264 31.5018 14.4988 34.512C14.6619 34.5848 14.8218 34.6615 14.9785 34.7425C19.1541 36.9449 16.0249 42.3064 13.2345 44.5088C12.806 44.8576 11.9589 44.6882 12.0187 44.0006C12.2502 41.1153 12.5401 38.2381 12.8883 35.3688C11.7519 35.1411 10.3924 35.0913 9.46427 35.0573C9.14717 35.0457 8.88043 35.0359 8.69014 35.0215C6.63007 34.8842 4.56444 34.8582 2.50226 34.9434C2.48817 36.7912 2.66194 38.6445 3.02641 40.4746C4.07922 45.7611 6.67589 50.6167 10.4881 54.4275C14.3003 58.2384 19.1569 60.8333 24.4438 61.8841C29.7307 62.935 35.2105 62.3947 40.1903 60.3314C45.1701 58.2682 49.4263 54.7747 52.4208 50.2927C55.4153 45.8107 57.0136 40.5414 57.0136 35.1511C57.0136 31.5709 56.3083 28.0258 54.9379 24.7183C53.5675 21.4108 51.559 18.4057 49.0269 15.8746C46.4949 13.3435 43.4891 11.3361 40.1811 9.96691C36.8731 8.59775 33.3277 7.89372 29.7476 7.89502ZM13.6154 42.1162C13.8049 40.0215 14.0382 37.9314 14.3153 35.8471C14.5446 35.9791 14.7251 36.1343 14.839 36.317C15.9644 38.0537 14.9492 40.4315 13.6154 42.1162ZM51.572 34.7725V33.5268H53.296V34.7725H51.572ZM53.4854 34.7725V33.5268H53.7744V34.7725H53.4854ZM54.9204 33.447L55.4785 34.1446L54.9204 34.8522L54.0335 34.5532V33.746L54.9204 33.447Z" fill="#5328FE"/>
<path d="M20.5093 64.9184H3.6275C2.65997 64.9027 1.73738 64.5073 1.05876 63.8175C0.380136 63.1277 -0.000127207 62.1988 3.19209e-08 61.2311V47.9768C3.19209e-08 47.9768 10.2945 62.6263 20.5093 64.9184Z" fill="#5328FE"/>
<path d="M3.62692 5.40356H20.5087C15.6988 6.91022 11.3257 9.56043 7.76418 13.1272C4.20266 16.6939 1.55885 21.0708 0.0592188 25.883V9.03106C0.0565043 8.07848 0.429627 7.16327 1.09759 6.48412C1.76555 5.80496 2.67443 5.41668 3.62692 5.40356Z" fill="#5328FE"/>
<path d="M59.4955 9.03107V23.4912C59.1787 23.3097 58.845 23.1595 58.499 23.0428C56.7337 18.8652 54.0788 15.1228 50.7191 12.0764C47.3595 9.02997 43.3759 6.7528 39.046 5.40358H55.868C56.3448 5.40226 56.8171 5.49519 57.2578 5.67702C57.6985 5.85886 58.0989 6.12601 58.436 6.46311C58.7731 6.80022 59.0403 7.20064 59.2221 7.64134C59.4039 8.08204 59.4969 8.55434 59.4955 9.03107Z" fill="#5328FE"/>
<path d="M59.5058 44.4089V61.2708C59.5084 61.7497 59.4162 62.2244 59.2345 62.6674C59.0527 63.1105 58.7851 63.5132 58.4469 63.8523C58.1087 64.1914 57.7068 64.4601 57.2642 64.6431C56.8217 64.8261 56.3472 64.9196 55.8683 64.9182H39.0065C43.8274 63.4126 48.2111 60.7599 51.7815 57.1877C55.3519 53.6156 58.0025 49.2306 59.5058 44.4089Z" fill="#5328FE"/>
</svg>
